<svg xmlns="http://www.w3.org/2000/svg" width="32" height="32" viewBox="0 0 8.467 8.467"><g transform="translate(0 -288.533)"><path fill="#68a4ff" d="m 2.5422843,293.49241 a 0.42285473,0.42285473 0 0 0 -0.0014,0.8404 15.222772,15.222772 0 0 0 3.4642324,-10e-4 0.68713898,0.68713898 0 1 0 -0.2936528,-1.33526 1.1099937,1.1099937 0 0 0 -2.1585387,-0.50963 0.73647983,0.73647983 0 0 0 -1.0106757,1.00624 z"/><path fill="#68a4ff" d="M6.6686843 293.99595a.81943004.81943004 0 0 0-.8060467-1.16445 1.2422848 1.2422848 0 0 0-.7436387-1.18153 1.1099937 1.1099937 0 0 1 1.9162405.94933.68713898.68713898 0 1 1 .29366 1.33525 15.222772 15.222772 0 0 1-.6602151.0614zM2.0379684 293.84376a15.222772 15.222772 0 0 1-1.13381297-.0865.42285473.42285473 0 0 1 .0014-.84039.73647983.73647983 0 0 1 1.01067577-1.00624 1.1099937 1.1099937 0 0 1 2.0646356-.18705 1.2422848 1.2422848 0 0 0-.5039099.58068.86877083.86877083 0 0 0-1.1189933 1.10361.55514579.55514579 0 0 0-.3199603.43592z"/></g></svg>