<svg class="svg-icon" style="width: 1em; height: 1em;vertical-align: middle;fill: currentColor;overflow: hidden;" viewBox="0 0 1024 1024" version="1.1" xmlns="http://www.w3.org/2000/svg"><path d="M776.533333 759.466667H247.466667a25.6 25.6 0 0 1-25.6-25.6v-42.666667a25.6 25.6 0 0 1 25.6-25.6h529.066666a25.6 25.6 0 0 1 25.6 25.6v42.666667a25.6 25.6 0 0 1-25.6 25.6z m0-204.8H247.466667a25.6 25.6 0 0 1-25.6-25.6v-42.666667a25.6 25.6 0 0 1 25.6-25.6h529.066666a25.6 25.6 0 0 1 25.6 25.6v42.666667a25.6 25.6 0 0 1-25.6 25.6z m0-196.266667H247.466667a25.6 25.6 0 0 1-25.6-25.6v-42.666667a25.6 25.6 0 0 1 25.6-25.6h529.066666a25.6 25.6 0 0 1 25.6 25.6v42.666667a25.6 25.6 0 0 1-25.6 25.6z" fill="#FFCD00" /><path d="M221.866667 460.8m25.6 0l529.066666 0q25.6 0 25.6 25.6l0 42.666667q0 25.6-25.6 25.6l-529.066666 0q-25.6 0-25.6-25.6l0-42.666667q0-25.6 25.6-25.6Z" fill="#FFFFFF" /></svg>