<svg class="svg-icon" style="width: 1.2119140625em;height: 1em;vertical-align: middle;fill: currentColor;overflow: hidden;" viewBox="0 0 1241 1024" version="1.1" xmlns="http://www.w3.org/2000/svg"><path d="M51.696485 735.728485a100.941576 100.941576 0 0 1 154.748121-4.685576l3.971879 4.685576a147.456 147.456 0 0 0 231.672242 0c9.309091-11.791515 21.131636-21.410909 34.629818-28.082424a23.272727 23.272727 0 0 0-20.728242-41.673697 148.790303 148.790303 0 0 0-45.149091 34.598788l-5.275151 6.268121a100.910545 100.910545 0 0 1-154.717091 4.685575l-3.940849-4.685575a147.549091 147.549091 0 0 0-231.703273 0 23.272727 23.272727 0 1 0 36.491637 28.858182zM1226.007273 706.932364a147.393939 147.393939 0 0 0-115.836121-56.164849 147.300848 147.300848 0 0 0-110.778182 50.11394l-5.05794 6.050909a100.941576 100.941576 0 0 1-154.748121 4.685575l-3.971879-4.685575a148.44897 148.44897 0 0 0-50.362182-40.835879 23.272727 23.272727 0 0 0-20.697212 41.673697c13.436121 6.671515 25.258667 16.290909 34.567758 28.051394a147.456 147.456 0 0 0 115.836121 56.164848 147.393939 147.393939 0 0 0 110.809212-50.113939l5.05794-6.050909a100.879515 100.879515 0 0 1 79.344485-38.477576c31.340606 0 60.198788 14.30497 79.344484 38.477576a23.272727 23.272727 0 0 0 36.491637-28.889212zM132.189091 899.475394c29.261576 0 56.413091 12.505212 75.496727 33.82303l3.971879 4.716606a147.549091 147.549091 0 0 0 226.769455 6.050909l5.057939-6.050909a101.065697 101.065697 0 0 1 154.903273-4.685575l3.971878 4.685575a147.549091 147.549091 0 0 0 226.769455 6.08194l5.08897-6.08194a101.096727 101.096727 0 0 1 154.903272-4.685575l3.971879 4.685575a147.518061 147.518061 0 0 0 115.929212 56.195879 23.272727 23.272727 0 1 0 0-46.545454 100.879515 100.879515 0 0 1-75.496727-33.823031l-3.940848-4.716606a147.642182 147.642182 0 0 0-226.769455-6.081939l-5.08897 6.050909a101.034667 101.034667 0 0 1-154.934303 4.716606l-3.940848-4.685576a147.642182 147.642182 0 0 0-226.769455-6.081939l-5.088969 6.050909a100.941576 100.941576 0 0 1-79.437576 38.570667 100.910545 100.910545 0 0 1-75.465697-33.823031l-3.940849-4.716606a147.642182 147.642182 0 0 0-115.929212-56.164848 23.272727 23.272727 0 1 0 0 46.545454z" fill="#FFC335" /><path d="M620.606061 669.758061a53.992727 53.992727 0 0 1-53.868606-53.837576V75.900121A53.992727 53.992727 0 0 1 620.606061 22.031515a53.992727 53.992727 0 0 1 53.868606 53.868606v540.020364A53.992727 53.992727 0 0 1 620.606061 669.758061" fill="#FFC335" /><path d="M719.499636 681.797818a98.893576 98.893576 0 1 1-197.787151-0.03103 98.893576 98.893576 0 0 1 197.787151 0" fill="#FFC335" /><path d="M620.606061 213.488485h203.962181a23.272727 23.272727 0 1 0 0-46.545455H620.606061a23.272727 23.272727 0 1 0 0 46.545455zM620.606061 360.882424h203.962181a23.272727 23.272727 0 1 0 0-46.545454H620.606061a23.272727 23.272727 0 1 0 0 46.545454zM620.606061 508.276364h203.962181a23.272727 23.272727 0 1 0 0-46.545455H620.606061a23.272727 23.272727 0 1 0 0 46.545455z" fill="#FFC335" /></svg>